<svg id="Ebene_1" data-name="Ebene 1" xmlns="http://www.w3.org/2000/svg" xmlns:xlink="http://www.w3.org/1999/xlink" viewBox="0 0 76 76"><defs><style>.cls-1{fill:url(#Unbenannter_Verlauf_15);}.cls-2{fill:#fff;}</style><linearGradient id="Unbenannter_Verlauf_15" x1="-111.25" y1="39.75" x2="-35.25" y2="39.75" gradientUnits="userSpaceOnUse"><stop offset="0" stop-color="#ff2a68"/><stop offset="1" stop-color="#ff5e3a"/></linearGradient></defs><title>Logo</title><rect class="cls-1" x="-111.25" y="1.75" width="76" height="76" rx="5" ry="5" transform="translate(-1.75 -35.25) rotate(-90)"/><path class="cls-2" d="M-107.25,48.23a13.87,13.87,0,0,0,7,2c4,0,6.34-2.11,6.34-5.17,0-2.83-1.62-4.46-5.71-6-5-1.76-8-4.32-8-8.59,0-4.73,3.91-8.23,9.81-8.23a13.78,13.78,0,0,1,6.7,1.48l-1.08,3.19a12.08,12.08,0,0,0-5.76-1.44c-4.14,0-5.71,2.48-5.71,4.54,0,2.83,1.85,4.23,6,5.85,5.13,2,7.74,4.46,7.74,8.91,0,4.68-3.46,8.73-10.62,8.73a15.67,15.67,0,0,1-7.74-1.93Z" transform="translate(111.25 -1.75)"/><path class="cls-2" d="M-82.08,52.75a4.54,4.54,0,0,1-1.95.39,3.22,3.22,0,0,1-3.38-3.46,3.45,3.45,0,0,1,3.64-3.6,4.11,4.11,0,0,1,1.71.35l-0.28,1a2.86,2.86,0,0,0-1.43-.32,2.35,2.35,0,0,0-2.4,2.56,2.33,2.33,0,0,0,2.35,2.54,3.5,3.5,0,0,0,1.51-.34Z" transform="translate(111.25 -1.75)"/><path class="cls-2" d="M-80.65,43.05h1.23v4.23h0a2.29,2.29,0,0,1,.88-0.87,2.55,2.55,0,0,1,1.26-.35c0.91,0,2.37.56,2.37,2.9v4h-1.23V49.11c0-1.09-.41-2-1.57-2a1.77,1.77,0,0,0-1.65,1.23,1.49,1.49,0,0,0-.08.59V53h-1.23V43.05Z" transform="translate(111.25 -1.75)"/><path class="cls-2" d="M-72.19,49.83a2.17,2.17,0,0,0,2.33,2.35A4.47,4.47,0,0,0-68,51.84l0.21,0.88a5.48,5.48,0,0,1-2.25.42,3.15,3.15,0,0,1-3.33-3.42c0-2,1.2-3.66,3.18-3.66,2.21,0,2.8,1.95,2.8,3.19a4.72,4.72,0,0,1,0,.57h-4.76Zm3.61-.88a1.75,1.75,0,0,0-1.71-2,2,2,0,0,0-1.89,2h3.6Z" transform="translate(111.25 -1.75)"/><path class="cls-2" d="M-60,43.05v8.19c0,0.6,0,1.29.06,1.75h-1.11l-0.06-1.18h0a2.51,2.51,0,0,1-2.31,1.33c-1.64,0-2.9-1.39-2.9-3.45,0-2.25,1.39-3.64,3-3.64a2.27,2.27,0,0,1,2,1h0v-4H-60ZM-61.24,49a2.19,2.19,0,0,0-.06-0.52A1.81,1.81,0,0,0-63.07,47c-1.27,0-2,1.12-2,2.62s0.67,2.51,2,2.51a1.85,1.85,0,0,0,1.81-1.47,2.15,2.15,0,0,0,.06-0.53V49Z" transform="translate(111.25 -1.75)"/><path class="cls-2" d="M-52.29,51.15c0,0.7,0,1.32.06,1.85h-1.09l-0.07-1.11h0a2.55,2.55,0,0,1-2.24,1.26c-1.06,0-2.34-.59-2.34-3v-4h1.23V50c0,1.29.39,2.16,1.51,2.16A1.78,1.78,0,0,0-53.64,51a1.81,1.81,0,0,0,.11-0.63V46.22h1.23v4.93Z" transform="translate(111.25 -1.75)"/><path class="cls-2" d="M-50.25,43.05H-49V53h-1.23V43.05Z" transform="translate(111.25 -1.75)"/><path class="cls-2" d="M-46.26,49.83a2.17,2.17,0,0,0,2.33,2.35,4.47,4.47,0,0,0,1.88-.35l0.21,0.88a5.48,5.48,0,0,1-2.25.42,3.15,3.15,0,0,1-3.33-3.42c0-2,1.2-3.66,3.18-3.66,2.21,0,2.8,1.95,2.8,3.19a4.72,4.72,0,0,1,0,.57h-4.76Zm3.61-.88a1.75,1.75,0,0,0-1.71-2,2,2,0,0,0-1.89,2h3.6Z" transform="translate(111.25 -1.75)"/><path class="cls-2" d="M-39.93,48.34c0-.8,0-1.49-0.06-2.12h1.08l0,1.33h0.06a2,2,0,0,1,1.88-1.48,1.32,1.32,0,0,1,.35,0v1.16a1.78,1.78,0,0,0-.42,0,1.73,1.73,0,0,0-1.65,1.58,3.45,3.45,0,0,0-.06.58V53h-1.22V48.34Z" transform="translate(111.25 -1.75)"/><path class="cls-2" d="M-82.09,36.66A4.54,4.54,0,0,1-84,37a3.22,3.22,0,0,1-3.38-3.46A3.44,3.44,0,0,1-83.77,30a4.11,4.11,0,0,1,1.71.35l-0.28,1A2.86,2.86,0,0,0-83.77,31a2.35,2.35,0,0,0-2.4,2.56,2.32,2.32,0,0,0,2.35,2.54,3.5,3.5,0,0,0,1.51-.34Z" transform="translate(111.25 -1.75)"/><path class="cls-2" d="M-80.65,27h1.23v4.23h0a2.29,2.29,0,0,1,.88-0.87A2.54,2.54,0,0,1-77.25,30c0.91,0,2.37.56,2.37,2.9v4h-1.23V33c0-1.09-.41-2-1.57-2a1.77,1.77,0,0,0-1.65,1.23,1.49,1.49,0,0,0-.08.59v4.09h-1.23V27Z" transform="translate(111.25 -1.75)"/><path class="cls-2" d="M-66.74,33.46a3.31,3.31,0,0,1-3.38,3.6,3.22,3.22,0,0,1-3.25-3.49A3.31,3.31,0,0,1-70,30,3.21,3.21,0,0,1-66.74,33.46Zm-5.38.07c0,1.48.85,2.61,2.06,2.61S-68,35-68,33.51c0-1.15-.57-2.61-2-2.61S-72.12,32.25-72.12,33.53Z" transform="translate(111.25 -1.75)"/><path class="cls-2" d="M-59.06,33.46a3.31,3.31,0,0,1-3.38,3.6,3.22,3.22,0,0,1-3.25-3.49A3.31,3.31,0,0,1-62.32,30,3.21,3.21,0,0,1-59.06,33.46Zm-5.38.07c0,1.48.85,2.61,2.06,2.61s2.06-1.11,2.06-2.63c0-1.15-.57-2.61-2-2.61S-64.44,32.25-64.44,33.53Z" transform="translate(111.25 -1.75)"/><path class="cls-2" d="M-57.51,27h1.23v9.95h-1.23V27Z" transform="translate(111.25 -1.75)"/></svg>